<?xml version="1.0" standalone="no"?>
<!DOCTYPE svg PUBLIC "-//W3C//DTD SVG 20010904//EN"
 "http://www.w3.org/TR/2001/REC-SVG-20010904/DTD/svg10.dtd">
<svg version="1.0" xmlns="http://www.w3.org/2000/svg"
 width="221.000000pt" height="185.000000pt" viewBox="0 0 221.000000 185.000000"
 preserveAspectRatio="xMidYMid meet">

<g transform="translate(0.000000,185.000000) scale(0.100000,-0.100000)"
fill="#000000" stroke="none">
<path d="M933 1256 c-108 -35 -197 -117 -234 -215 -29 -76 -24 -213 9 -283 72
-148 229 -229 391 -199 191 35 296 185 277 395 -17 186 -138 302 -324 312 -49
3 -92 -1 -119 -10z m198 -152 c96 -49 134 -195 79 -304 -65 -129 -257 -136
-344 -12 -38 54 -47 141 -21 207 20 53 81 109 133 124 44 11 116 5 153 -15z"/>
<path d="M220 1220 c19 -36 20 -58 20 -310 0 -252 -1 -273 -20 -311 l-21 -39
213 2 212 3 18 60 c10 33 18 63 18 67 0 4 -62 9 -137 10 l-138 3 -3 278 -2
277 -90 0 -90 0 20 -40z"/>
<path d="M1450 909 l0 -351 158 4 c147 4 161 6 220 33 80 36 152 112 182 193
18 47 21 72 18 142 -6 121 -49 201 -142 264 -78 53 -138 66 -298 66 l-138 0 0
-351z m316 182 c50 -23 81 -53 105 -106 34 -73 18 -149 -45 -211 -46 -46 -93
-64 -172 -64 l-51 0 -5 103 c-3 56 -3 146 0 200 l5 97 61 0 c38 0 77 -8 102
-19z"/>
</g>
</svg>
